<?xml version="1.0" standalone="no"?>
<!DOCTYPE svg PUBLIC "-//W3C//DTD SVG 20010904//EN"
 "http://www.w3.org/TR/2001/REC-SVG-20010904/DTD/svg10.dtd">
<svg version="1.0" xmlns="http://www.w3.org/2000/svg"
 width="480.000000pt" height="480.000000pt" viewBox="0 0 480.000000 480.000000"
 preserveAspectRatio="xMidYMid meet">
<metadata>
Created by potrace 1.11, written by Peter Selinger 2001-2013
</metadata>
<g transform="translate(0.000000,480.000000) scale(0.100000,-0.100000)"
fill="#000000" stroke="none">
<path d="M1378 3422 c-932 -931 -988 -989 -988 -1022 0 -33 56 -91 988 -1022
933 -933 989 -988 1022 -988 33 0 89 55 1022 988 931 930 988 989 988 1022 0
32 -29 64 -440 474 l-439 440 -73 -70 c-139 -134 -570 -480 -830 -665 -251
-180 -514 -322 -716 -389 -163 -53 -222 -63 -349 -57 -125 5 -198 25 -242 66
-29 27 -31 34 -31 98 0 60 -3 72 -24 92 -24 22 -25 22 -88 6 -60 -15 -306
-111 -486 -189 -46 -19 -80 -31 -77 -26 14 22 309 269 430 360 243 182 386
261 486 268 54 4 60 2 89 -26 37 -38 39 -74 8 -193 -36 -141 -17 -149 147 -58
247 137 530 360 910 718 221 208 415 433 415 480 0 9 -150 166 -333 349 -309
308 -335 332 -367 332 -33 0 -93 -58 -1022 -988z"/>
</g>
</svg>
