<?xml version="1.0" standalone="no"?>
<!DOCTYPE svg PUBLIC "-//W3C//DTD SVG 20010904//EN"
 "http://www.w3.org/TR/2001/REC-SVG-20010904/DTD/svg10.dtd">
<svg version="1.0" xmlns="http://www.w3.org/2000/svg"
 width="16.000000pt" height="16.000000pt" viewBox="0 0 16.000000 16.000000"
 preserveAspectRatio="xMidYMid meet">
<metadata>
Created by potrace 1.11, written by Peter Selinger 2001-2013
</metadata>
<g transform="translate(0.000000,16.000000) scale(0.001778,-0.001778)"
fill="#000000" stroke="none">
<path d="M0 4500 l0 -4500 4500 0 4500 0 0 4500 0 4500 -4500 0 -4500 0 0
-4500z m5571 2488 c538 -534 979 -977 979 -983 0 -35 -560 -505 -1120 -941
-756 -589 -1341 -927 -1856 -1073 -209 -59 -321 -75 -478 -68 -194 8 -338 44
-425 107 -62 45 -75 72 -73 149 3 168 -23 231 -98 231 -77 0 -330 -89 -686
-240 -166 -71 -172 -74 -219 -131 -27 -32 -60 -79 -75 -104 l-26 -45 -235 235
c-129 129 -238 245 -243 258 -5 13 -6 35 -3 48 4 14 749 766 1759 1777 1627
1626 1756 1752 1786 1752 31 0 109 -74 1013 -972z m2539 -2578 c0 -33 -94
-129 -1758 -1792 -1665 -1666 -1759 -1758 -1792 -1758 -33 0 -107 73 -1384
1349 l-1349 1349 59 16 c32 9 150 50 261 91 279 104 320 101 412 -24 117 -160
225 -225 451 -271 474 -98 1129 111 1905 609 328 211 786 553 1290 965 405
331 529 449 576 550 31 66 55 182 45 219 -3 12 285 -269 639 -623 606 -607
645 -647 645 -680z"/>
<path d="M3250 4946 c0 -24 -14 -98 -31 -163 -49 -187 -52 -199 -39 -222 22
-42 84 -22 275 90 l105 61 -32 60 c-58 107 -146 180 -255 213 -21 6 -23 3 -23
-39z"/>
</g>
</svg>
