<?xml version="1.0" encoding="UTF-8"?>
<svg width="811px" height="242px" viewBox="0 0 811 242" version="1.1" xmlns="http://www.w3.org/2000/svg" xmlns:xlink="http://www.w3.org/1999/xlink">
    <!-- Generator: Sketch 43.2 (39069) - http://www.bohemiancoding.com/sketch -->
    <title>Group 2</title>
    <desc>Created with Sketch.</desc>
    <defs>
        <linearGradient x1="18.5826669%" y1="2.51026307%" x2="81.0967924%" y2="100%" id="linearGradient-1">
            <stop stop-color="#0B570C" offset="0%"></stop>
            <stop stop-color="#083F05" offset="100%"></stop>
        </linearGradient>
        <rect id="path-2" x="0" y="0" width="790" height="173"></rect>
        <filter x="-8.7%" y="-42.3%" width="117.3%" height="184.6%" filterUnits="objectBoundingBox" id="filter-3">
            <feGaussianBlur stdDeviation="21.3337054" in="SourceGraphic"></feGaussianBlur>
        </filter>
    </defs>
    <g id="Page-1" stroke="none" stroke-width="1" fill="none" fill-rule="evenodd">
        <g id="anchor-30-1" transform="translate(-19.000000, 0.000000)">
            <g id="blackborad1" transform="translate(33.000000, 35.000000)">
                <g id="Group">
                    <g id="Group-2" transform="translate(3.000000, 3.000000)">
                        <g id="board">
                            <use fill="url(#linearGradient-1)" fill-rule="evenodd" xlink:href="#path-2"></use>
                            <rect stroke-opacity="0" stroke="#FFFFFF" stroke-width="4" x="-2" y="-2" width="794" height="177"></rect>
                        </g>
                        <path d="M143.706459,46.8649714 C261.535468,66.1147463 410.813066,76.8368268 537.043749,73.7543766 C582.427362,72.6461459 621.051904,76.6422185 637.432812,57.077121 C639.088636,55.0994309 635.224956,52.5858097 631.186954,51.3633651 C592.729443,39.720929 576.374397,37.9171238 533.171133,34.9152033 C525.128367,34.3563625 516.930375,34.2443724 508.781011,34.175502 C504.797911,34.1418407 500.503295,33.9154286 496.873407,34.6084505 C486.337788,36.6199216 502.157061,49.759196 502.811111,50.2101299 C511.270492,56.0424373 557.614061,68.6038044 529.767647,76.6277571 C515.971598,80.6030926 499.652996,82.7510586 484.211516,85.4401044 C416.378485,97.2528403 342.75996,106.935424 268.430452,105.270313 C254.184609,104.951181 239.881126,104.207847 226.06624,102.705626 C203.592047,100.2618 182.697526,91.5031966 159.965007,93.4758624 C145.366598,94.7426724 182.510832,101.728482 194.542594,105.441162 C207.503853,109.440661 220.97008,113.163852 234.837118,116.579395 C243.181714,118.634724 252.128988,120.23193 261.030168,121.81749 C269.301574,123.290868 277.545267,124.91395 286.303357,125.747032 C308.735118,127.880771 331.423023,129.651308 354.285707,130.688081 C385.661007,132.110882 417.235316,132.737256 448.778459,133.114923 C467.493512,133.338998 486.227777,132.88811 504.926792,132.49171 C513.079246,132.318886 521.257481,132.043992 529.28012,131.408368 C536.830715,130.810143 544.318317,129.970471 551.485572,128.802911 C561.938515,127.100104 572.055568,125.028457 581.969775,122.825114 C589.854957,121.072704 597.715622,119.235579 604.800733,116.954099 C610.197215,115.216375 614.888403,113.085331 619.14597,110.85399 C621.62132,109.556687 624.769824,108.131941 624.812315,106.46626 C624.913225,102.510536 624.637696,98.1313948 619.555308,94.8077131 C615.460685,92.1299911 607.03423,91.0524526 599.815084,90.119055 C557.214728,84.6110526 520.201686,84.2905091 475.081892,85.1838299 C444.091054,85.7974134 413.083563,86.9181166 382.438062,88.9599955 C309.849342,93.7965088 224.454084,109.568101 153.043051,92.1051822 C147.961322,90.8624916 143.029305,89.356475 139.355515,87.4223486 C134.705286,84.9741598 131.355683,82.0950042 128.519549,79.1943848 C127.057269,77.6988574 126.859906,76.0216833 126.629234,74.4067117 C126.007296,70.0524273 125.255909,65.674977 125.966934,61.3231231 C126.560804,57.68832 128.124168,54.0631488 130.524847,50.5634781 C154.64232,15.4054069 211.436608,26.5094707 295.083433,22.9673766 C344.055517,20.8936132 368.267008,17.9294918 414.536622,10.8797639 C418.094528,10.3376744 427.897264,8.65432641 424.181367,8.35584859 C369.9287,3.99802607 308.107743,6.52388687 254.885495,9.73041168 C211.061182,12.3707313 167.689064,16.2281498 124.283588,19.8998488 C113.108594,20.8451492 101.87396,21.8671075 91.2191732,23.5750578 C85.8621967,24.433775 81.2876077,26.0198156 76.7819501,27.5143071 C75.4486099,27.9565657 74.521768,28.6253808 73.957976,29.3004625 C71.4510899,32.3021949 69.0182337,35.339401 67.6339295,38.4680994 C58.0686564,60.0867987 111.289053,56.9559335 145.610572,57.733339 C245.741055,60.0013618 345.971625,61.493559 446.055669,64.1013714 C462.726788,64.5357578 479.864023,64.6620234 495.737378,66.856322 C518.035434,69.9387575 499.486089,81.9721184 517.367916,83.2171175 C589.445222,88.2354066 680.685157,63.4167467 665.437989,29.663518 C664.073753,26.643456 661.907266,23.6143886 658.27227,20.9501859 C635.581497,4.31940451 566.109838,17.101108 540.81978,26.8017864 C508.350033,39.2564264 477.266329,52.3513334 444.445912,64.641101 C426.519327,71.3537992 406.896477,77.2196925 388.656324,83.7801447 C330.669254,104.636406 268.765617,125.934638 190.12266,130.625954 C156.930112,132.606001 93.0667674,130.281042 79.9968654,114.519491 C77.4950486,111.502444 72.4790452,92.9757281 53.5600517,88.7833214 C50.2767811,88.055756 46.0271983,87.3656149 42.6045036,87.9679026 C38.6330008,88.6667635 36.3170896,90.5433953 34.3625464,92.161485 C30.5971396,95.2787175 28.1315427,98.6550393 25.6606585,101.995047 C24.1800263,103.996486 22.9827087,106.057307 22.5377294,108.145635 C21.9360363,110.969433 21.6520371,113.84079 22.5377294,116.651229 C23.6345111,120.131488 24.5904645,123.773216 28.4432389,126.884735 C41.6252116,137.53056 69.0503322,143.59902 95.5609186,146.4742 C133.206004,150.556962 214.288064,154.837831 262.658323,156.597042 C323.24602,158.800597 354.065976,158.815782 423.049938,158.088094 C456.221548,157.738178 489.475806,157.41791 522.459349,155.888404 C543.260937,154.923798 563.72718,152.834343 583.988871,150.62507 C595.138946,149.4093 606.015118,147.690918 616.455375,145.639367 C626.566475,143.652496 636.132441,141.173964 645.40341,138.556872 C688.106921,126.502144 647.849487,104.587266 654.243277,87.7621065 C659.337896,74.3556978 683.368419,63.6288064 699.872997,52.786465 C703.796111,50.2092568 706.11076,47.2239327 710.244433,44.7060531 C710.862168,44.329782 712.530297,44.2751094 713.463948,44.5080229 C716.865953,45.3567047 719.702776,46.5707912 722.478589,47.7580492 C737.535455,54.1981049 752.110387,60.8358133 766.926287,67.3746954" id="track" stroke="#FFFFFF" filter="url(#filter-3)"></path>
                    </g>
                </g>
            </g>
        </g>
    </g>
</svg>