<?xml version="1.0" encoding="UTF-8"?>
<svg width="811px" height="242px" viewBox="0 0 811 242" version="1.1" xmlns="http://www.w3.org/2000/svg" xmlns:xlink="http://www.w3.org/1999/xlink">
    <!-- Generator: Sketch 43.2 (39069) - http://www.bohemiancoding.com/sketch -->
    <title>track</title>
    <desc>Created with Sketch.</desc>
    <defs>
        <filter x="-8.7%" y="-42.3%" width="117.3%" height="184.6%" filterUnits="objectBoundingBox" id="filter-1">
            <feGaussianBlur stdDeviation="21.3337054" in="SourceGraphic"></feGaussianBlur>
        </filter>
    </defs>
    <g id="Page-1" stroke="none" stroke-width="1" fill="none" fill-rule="evenodd">
        <g id="anchor-30-1" transform="translate(-19.000000, 0.000000)" stroke="#FFFFFF">
            <g id="blackborad1" transform="translate(33.000000, 35.000000)">
                <g id="Group">
                    <path d="M146.706459,49.8649714 C264.535468,69.1147463 413.813066,79.8368268 540.043749,76.7543766 C585.427362,75.6461459 624.051904,79.6422185 640.432812,60.077121 C642.088636,58.0994309 638.224956,55.5858097 634.186954,54.3633651 C595.729443,42.720929 579.374397,40.9171238 536.171133,37.9152033 C528.128367,37.3563625 519.930375,37.2443724 511.781011,37.175502 C507.797911,37.1418407 503.503295,36.9154286 499.873407,37.6084505 C489.337788,39.6199216 505.157061,52.759196 505.811111,53.2101299 C514.270492,59.0424373 560.614061,71.6038044 532.767647,79.6277571 C518.971598,83.6030926 502.652996,85.7510586 487.211516,88.4401044 C419.378485,100.25284 345.75996,109.935424 271.430452,108.270313 C257.184609,107.951181 242.881126,107.207847 229.06624,105.705626 C206.592047,103.2618 185.697526,94.5031966 162.965007,96.4758624 C148.366598,97.7426724 185.510832,104.728482 197.542594,108.441162 C210.503853,112.440661 223.97008,116.163852 237.837118,119.579395 C246.181714,121.634724 255.128988,123.23193 264.030168,124.81749 C272.301574,126.290868 280.545267,127.91395 289.303357,128.747032 C311.735118,130.880771 334.423023,132.651308 357.285707,133.688081 C388.661007,135.110882 420.235316,135.737256 451.778459,136.114923 C470.493512,136.338998 489.227777,135.88811 507.926792,135.49171 C516.079246,135.318886 524.257481,135.043992 532.28012,134.408368 C539.830715,133.810143 547.318317,132.970471 554.485572,131.802911 C564.938515,130.100104 575.055568,128.028457 584.969775,125.825114 C592.854957,124.072704 600.715622,122.235579 607.800733,119.954099 C613.197215,118.216375 617.888403,116.085331 622.14597,113.85399 C624.62132,112.556687 627.769824,111.131941 627.812315,109.46626 C627.913225,105.510536 627.637696,101.131395 622.555308,97.8077131 C618.460685,95.1299911 610.03423,94.0524526 602.815084,93.119055 C560.214728,87.6110526 523.201686,87.2905091 478.081892,88.1838299 C447.091054,88.7974134 416.083563,89.9181166 385.438062,91.9599955 C312.849342,96.7965088 227.454084,112.568101 156.043051,95.1051822 C150.961322,93.8624916 146.029305,92.356475 142.355515,90.4223486 C137.705286,87.9741598 134.355683,85.0950042 131.519549,82.1943848 C130.057269,80.6988574 129.859906,79.0216833 129.629234,77.4067117 C129.007296,73.0524273 128.255909,68.674977 128.966934,64.3231231 C129.560804,60.68832 131.124168,57.0631488 133.524847,53.5634781 C157.64232,18.4054069 214.436608,29.5094707 298.083433,25.9673766 C347.055517,23.8936132 371.267008,20.9294918 417.536622,13.8797639 C421.094528,13.3376744 430.897264,11.6543264 427.181367,11.3558486 C372.9287,6.99802607 311.107743,9.52388687 257.885495,12.7304117 C214.061182,15.3707313 170.689064,19.2281498 127.283588,22.8998488 C116.108594,23.8451492 104.87396,24.8671075 94.2191732,26.5750578 C88.8621967,27.433775 84.2876077,29.0198156 79.7819501,30.5143071 C78.4486099,30.9565657 77.521768,31.6253808 76.957976,32.3004625 C74.4510899,35.3021949 72.0182337,38.339401 70.6339295,41.4680994 C61.0686564,63.0867987 114.289053,59.9559335 148.610572,60.733339 C248.741055,63.0013618 348.971625,64.493559 449.055669,67.1013714 C465.726788,67.5357578 482.864023,67.6620234 498.737378,69.856322 C521.035434,72.9387575 502.486089,84.9721184 520.367916,86.2171175 C592.445222,91.2354066 683.685157,66.4167467 668.437989,32.663518 C667.073753,29.643456 664.907266,26.6143886 661.27227,23.9501859 C638.581497,7.31940451 569.109838,20.101108 543.81978,29.8017864 C511.350033,42.2564264 480.266329,55.3513334 447.445912,67.641101 C429.519327,74.3537992 409.896477,80.2196925 391.656324,86.7801447 C333.669254,107.636406 271.765617,128.934638 193.12266,133.625954 C159.930112,135.606001 96.0667674,133.281042 82.9968654,117.519491 C80.4950486,114.502444 75.4790452,95.9757281 56.5600517,91.7833214 C53.2767811,91.055756 49.0271983,90.3656149 45.6045036,90.9679026 C41.6330008,91.6667635 39.3170896,93.5433953 37.3625464,95.161485 C33.5971396,98.2787175 31.1315427,101.655039 28.6606585,104.995047 C27.1800263,106.996486 25.9827087,109.057307 25.5377294,111.145635 C24.9360363,113.969433 24.6520371,116.84079 25.5377294,119.651229 C26.6345111,123.131488 27.5904645,126.773216 31.4432389,129.884735 C44.6252116,140.53056 72.0503322,146.59902 98.5609186,149.4742 C136.206004,153.556962 217.288064,157.837831 265.658323,159.597042 C326.24602,161.800597 357.065976,161.815782 426.049938,161.088094 C459.221548,160.738178 492.475806,160.41791 525.459349,158.888404 C546.260937,157.923798 566.72718,155.834343 586.988871,153.62507 C598.138946,152.4093 609.015118,150.690918 619.455375,148.639367 C629.566475,146.652496 639.132441,144.173964 648.40341,141.556872 C691.106921,129.502144 650.849487,107.587266 657.243277,90.7621065 C662.337896,77.3556978 686.368419,66.6288064 702.872997,55.786465 C706.796111,53.2092568 709.11076,50.2239327 713.244433,47.7060531 C713.862168,47.329782 715.530297,47.2751094 716.463948,47.5080229 C719.865953,48.3567047 722.702776,49.5707912 725.478589,50.7580492 C740.535455,57.1981049 755.110387,63.8358133 769.926287,70.3746954" id="track" filter="url(#filter-1)"></path>
                </g>
            </g>
        </g>
    </g>
</svg>