<?xml version="1.0" encoding="UTF-8"?>
<svg width="1025px" height="279px" viewBox="0 0 1025 279" version="1.1" xmlns="http://www.w3.org/2000/svg" xmlns:xlink="http://www.w3.org/1999/xlink">
    <!-- Generator: Sketch 42 (36781) - http://www.bohemiancoding.com/sketch -->
    <title>LINEat_logotype_CMKY_white_noBg</title>
    <desc>Created with Sketch.</desc>
    <defs></defs>
    <g id="Page-1" stroke="none" stroke-width="1" fill="none" fill-rule="evenodd">
        <g id="LINEat_logotype_CMKY_white_noBg" fill-rule="nonzero" fill="#FFFFFF">
            <g id="TypeA" transform="translate(0.668360, -5.666160)">
                <path d="M684.725,170.327042 C700.425,170.327042 713.175,157.560222 713.175,141.880868 C713.175,126.180679 700.425,113.422193 684.725,113.422193 L605.3625,113.422193 L605.3625,62.5007493 L684.725,62.5007493 C700.425,62.5007493 713.175,49.7380963 713.175,34.0504082 C713.175,18.35022 700.425,5.5917337 684.725,5.5917337 L576.879167,5.5917337 C561.204167,5.5917337 548.454167,18.35022 548.454167,34.0504082 L548.454167,249.677993 C548.454167,265.386515 561.220833,278.145001 576.879167,278.145001 L684.725,278.145001 C700.4,278.145001 713.175,265.386515 713.175,249.677993 C713.175,234.002805 700.4,221.231819 684.725,221.231819 L605.3625,221.231819 L605.3625,170.327042 L684.725,170.327042 Z" id="Shape"></path>
                <path d="M481.804167,5.59590042 C466.120833,5.59590042 453.354167,18.3543867 453.354167,34.0545749 L453.354167,167.456174 L342.829167,16.9877037 C337.4875,9.84178465 328.995833,5.59590042 320.0875,5.59590042 C317.045833,5.59590042 313.991667,6.07090611 311.058333,7.05841795 C299.425,10.9417978 291.620833,21.7877612 291.620833,34.0545749 L291.620833,249.68216 C291.620833,265.390682 304.379167,278.149168 320.079167,278.149168 C335.770833,278.149168 348.529167,265.390682 348.529167,249.68216 L348.529167,116.288894 L459.020833,266.765698 C464.3875,273.89495 472.891667,278.149168 481.754167,278.149168 C484.825,278.149168 487.8625,277.665829 490.804167,276.682484 C502.458333,272.819937 510.245833,261.969807 510.245833,249.68216 L510.245833,34.0545749 C510.245833,18.3543867 497.491667,5.59590042 481.804167,5.59590042" id="Shape"></path>
                <path d="M222.266667,5.59590042 C206.5625,5.59590042 193.816667,18.3543867 193.816667,34.0545749 L193.816667,249.68216 C193.816667,265.390682 206.5625,278.149168 222.266667,278.149168 C237.941667,278.149168 250.708333,265.390682 250.708333,249.68216 L250.708333,34.0545749 C250.708333,18.3543867 237.941667,5.59590042 222.266667,5.59590042" id="Shape"></path>
                <path d="M139.183333,221.231819 L59.8041667,221.231819 L59.8041667,34.0504082 C59.8041667,18.35022 47.0625,5.5917337 31.3625,5.5917337 C15.6625,5.5917337 2.9125,18.35022 2.9125,34.0504082 L2.9125,249.677993 C2.9125,265.386515 15.6625,278.145001 31.3625,278.145001 L139.183333,278.145001 C154.883333,278.145001 167.625,265.386515 167.625,249.677993 C167.625,233.998639 154.883333,221.231819 139.183333,221.231819" id="Shape"></path>
                <path d="M885.583333,277.044988 C810,277.032488 748.7375,215.794254 748.725,140.193347 C748.7375,64.5966077 810,3.35004016 885.583333,3.34170673 C961.166667,3.35004016 1022.42917,64.5966077 1022.4375,140.193347 L1022.4375,159.110241 C1022.42917,187.673083 999.283333,210.78586 970.7375,210.810861 C942.195833,210.79836 919.05,187.673083 919.05,159.110241 L919.05,140.193347 C919.004167,121.718126 904.054167,106.759613 885.583333,106.734613 C867.1125,106.759613 852.15,121.718126 852.116667,140.193347 C852.15,158.664402 867.1125,173.627081 885.583333,173.660415 C887.925,173.660415 890.183333,173.418746 892.341667,172.96874 C902.379167,170.914549 912.2,177.393793 914.266667,187.443914 C916.325,197.489868 909.854167,207.306652 899.804167,209.373343 C895.191667,210.302521 890.429167,210.810861 885.583333,210.810861 C846.570833,210.79836 815,179.197982 814.983333,140.193347 C815,101.197047 846.570833,69.592501 885.583333,69.5841675 C924.579167,69.592501 956.183333,101.197047 956.183333,140.193347 L956.183333,159.110241 C956.2,167.135337 962.695833,173.652082 970.7375,173.660415 C978.75,173.652082 985.279167,167.135337 985.291667,159.110241 L985.291667,140.193347 C985.1875,85.1260205 940.6375,40.5879866 885.583333,40.4838187 C830.520833,40.5879866 785.9875,85.1260205 785.875,140.193347 C785.9875,195.260674 830.520833,239.802875 885.583333,239.898709 C899.15,239.898709 911.995833,237.215344 923.745833,232.340285 L923.745833,232.344452 C933.220833,228.411072 944.0875,232.902792 948.020833,242.382072 C951.954167,251.857186 947.458333,262.71565 937.975,266.644863 C921.841667,273.344944 904.120833,277.044988 885.625,277.044988 L885.583333,277.044988 Z" id="Shape"></path>
            </g>
        </g>
    </g>
</svg>