<svg xmlns="http://www.w3.org/2000/svg" width="1025" height="279"><path fill="#FFF" d="M685.393 164.66c15.7 0 28.45-12.766 28.45-28.445 0-15.7-12.75-28.46-28.45-28.46H606.03v-50.92h79.363c15.7 0 28.45-12.763 28.45-28.45 0-15.7-12.75-28.46-28.45-28.46H577.548c-15.675 0-28.425 12.76-28.425 28.46V244.01c0 15.708 12.766 28.467 28.425 28.467h107.845c15.675 0 28.45-12.76 28.45-28.468 0-15.68-12.775-28.45-28.45-28.45H606.03v-50.9h79.363zM482.473-.07c-15.684 0-28.45 12.758-28.45 28.458V161.79L343.498 11.322C338.156 4.176 329.664-.07 320.756-.07c-3.042 0-6.096.475-9.03 1.462-11.633 3.884-19.437 14.73-19.437 26.996v215.628c0 15.71 12.75 28.467 28.45 28.467 15.69 0 28.45-12.758 28.45-28.467V110.623L459.68 261.1c5.37 7.13 13.878 11.383 22.74 11.383 3.07 0 6.11-.483 9.05-1.467 11.655-3.862 19.44-14.712 19.44-27V28.388c0-15.7-12.752-28.458-28.44-28.458m-259.54 0c-15.7 0-28.45 12.758-28.45 28.458v215.628c0 15.71 12.75 28.467 28.45 28.467 15.678 0 28.445-12.758 28.445-28.467V28.388c0-15.7-12.767-28.458-28.442-28.458M139.85 215.566H60.47V28.384c0-15.7-12.74-28.458-28.44-28.458-15.7 0-28.45 12.758-28.45 28.458v215.628c0 15.708 12.75 28.467 28.45 28.467h107.82c15.7 0 28.44-12.76 28.44-28.47 0-15.68-12.74-28.45-28.44-28.45m746.4 55.81c-75.584-.018-136.846-61.256-136.86-136.857.014-75.597 61.276-136.843 136.86-136.85 75.583.007 136.846 61.253 136.854 136.85v18.917c-.008 28.564-23.154 51.677-51.7 51.7-28.542-.01-51.688-23.136-51.688-51.7v-18.91c-.046-18.474-14.996-33.433-33.467-33.46-18.47.027-33.438 14.986-33.47 33.46.032 18.47 14.995 33.435 33.466 33.468 2.34 0 4.6-.24 6.76-.69 10.04-2.054 19.86 4.426 21.924 14.476 2.06 10.046-4.41 19.862-14.46 21.93-4.614.928-9.376 1.437-14.22 1.437-39.015-.01-70.586-31.61-70.6-70.61.014-38.995 31.585-70.6 70.6-70.61 38.994.01 70.6 31.615 70.6 70.61v18.918c.014 8.027 6.51 14.544 14.552 14.55 8.012-.006 14.542-6.523 14.554-14.55V134.53c-.104-55.068-44.654-99.606-99.708-99.71-55.064.104-99.597 44.642-99.71 99.71.113 55.067 44.646 99.61 99.71 99.705 13.565 0 26.41-2.683 38.16-7.56v.006c9.476-3.93 20.343.56 24.276 10.04 3.93 9.477-.57 20.335-10.05 24.265-16.138 6.7-33.86 10.4-52.35 10.4h-.04z"/></svg>