<?xml version="1.0" encoding="UTF-8" standalone="no"?>
<svg width="24px" height="24px" viewBox="0 0 24 24" version="1.1" xmlns="http://www.w3.org/2000/svg" xmlns:xlink="http://www.w3.org/1999/xlink">
    <!-- Generator: Sketch 3.8.3 (29802) - http://www.bohemiancoding.com/sketch -->
    <title>logomark_svg_28</title>
    <desc>Created with Sketch.</desc>
    <defs>
        <rect id="path-1" x="3.5" y="3.5" width="16.8" height="16.8" rx="0.600000024"></rect>
    </defs>
    <g id="Page-1" stroke="none" stroke-width="1" fill="none" fill-rule="evenodd">
        <g id="Artboard-14" transform="translate(-318.000000, -37.000000)">
            <g id="logomark_svg_28" transform="translate(318.000000, 37.000000)">
                <g id="Triangle-15" transform="translate(0.100000, 0.100000)">
                    <mask id="mask-2" fill="white">
                        <use xlink:href="#path-1"></use>
                    </mask>
                    <use id="Mask" fill="#0CADF6" transform="translate(11.900000, 11.900000) rotate(-315.000000) translate(-11.900000, -11.900000) " xlink:href="#path-1"></use>
                    <path d="M7.85765981,13.914279 C6.38506642,9.5632938 6.56452777,7.70480212 6.66866711,6.69181018 C6.78133826,5.59582693 7.56695357,4.23196417 8.14303015,4.40700533 C8.54256182,4.52840323 8.74878122,4.7029903 9.04233667,4.50450333 C9.33589212,4.30601637 8.94837619,0.275054507 8.94837619,0.275054507 C8.94837619,0.275054507 11.4717451,5.93067195 10.7053735,7.07746342 C9.94960541,8.20838784 8.36871381,5.40661121 8.74878126,7.40805088 C8.94052167,8.41775816 9.0866678,9.54638909 10.7053733,13.2879861 C12.3240788,17.0295831 12.9253828,17.2366283 12.9253828,17.2366283 L9.76328121,18.8636918 C9.76328121,18.8636918 9.33025321,18.2652642 7.85765981,13.914279 Z" fill="#FDFEFF" mask="url(#mask-2)" transform="translate(9.763281, 9.569373) rotate(251.000000) translate(-9.763281, -9.569373) "></path>
                </g>
            </g>
        </g>
    </g>
</svg>